<?xml version="1.0" encoding="UTF-8" standalone="no"?>
<!-- Creator: CorelDRAW X8 -->

<svg
   xmlns:dc="http://purl.org/dc/elements/1.1/"
   xmlns:cc="http://creativecommons.org/ns#"
   xmlns:rdf="http://www.w3.org/1999/02/22-rdf-syntax-ns#"
   xmlns:svg="http://www.w3.org/2000/svg"
   xmlns="http://www.w3.org/2000/svg"
   xmlns:sodipodi="http://sodipodi.sourceforge.net/DTD/sodipodi-0.dtd"
   xmlns:inkscape="http://www.inkscape.org/namespaces/inkscape"
   xml:space="preserve"
   width="54.364758mm"
   height="54.36475mm"
   version="1.1"
   style="clip-rule:evenodd;fill-rule:evenodd;image-rendering:optimizeQuality;shape-rendering:geometricPrecision;text-rendering:geometricPrecision"
   viewBox="0 0 2681.8262 2682"
   id="svg2"
   inkscape:version="0.91 r13725"
   sodipodi:docname="reaction-haha.svg"><metadata
     id="metadata101"><rdf:RDF><cc:Work
         rdf:about=""><dc:format>image/svg+xml</dc:format><dc:type
           rdf:resource="http://purl.org/dc/dcmitype/StillImage" /><dc:title></dc:title></cc:Work></rdf:RDF></metadata><sodipodi:namedview
     pagecolor="#ffffff"
     bordercolor="#666666"
     borderopacity="1"
     objecttolerance="10"
     gridtolerance="10"
     guidetolerance="10"
     inkscape:pageopacity="0"
     inkscape:pageshadow="2"
     inkscape:window-width="1920"
     inkscape:window-height="1017"
     id="namedview99"
     showgrid="false"
     inkscape:zoom="1.1101576"
     inkscape:cx="327.12877"
     inkscape:cy="104.01024"
     inkscape:window-x="-8"
     inkscape:window-y="-8"
     inkscape:window-maximized="1"
     inkscape:current-layer="svg2"
     fit-margin-top="0"
     fit-margin-left="0"
     fit-margin-right="0"
     fit-margin-bottom="0" /><defs
     id="defs4"><style
       type="text/css"
       id="style6"><![CDATA[
    .str0 {stroke:#373435;stroke-width:9.86624}
    .fil6 {fill:none}
    .fil0 {fill:#FEFEFE}
    .fil4 {fill:#FCDC6B}
    .fil1 {fill:#6A99D0}
    .fil5 {fill:#201E1E}
    .fil2 {fill:#F50953}
    .fil3 {fill:#FEFEFE;fill-rule:nonzero}
    .fil8 {fill:#6383C1;fill-rule:nonzero}
    .fil7 {fill:url(#id1)}
   ]]></style><clipPath
       id="id0"><path
         d="m 8717,1868 c 104,-21 209,-43 343,-60 135,-16 301,-27 449,-32 148,-6 278,-6 409,2 130,8 261,23 390,42 129,20 258,44 386,68 0,96 0,191 -26,304 -26,114 -78,244 -159,358 -80,114 -189,212 -279,277 -91,64 -162,94 -245,118 -83,24 -176,41 -269,43 -92,1 -183,-15 -273,-40 -89,-25 -176,-59 -270,-123 -95,-63 -197,-154 -276,-262 -78,-107 -132,-231 -158,-350 -27,-118 -24,-232 -22,-345 z"
         id="path9"
         inkscape:connector-curvature="0" /></clipPath><linearGradient
       id="id1"
       gradientUnits="userSpaceOnUse"
       x1="20138.9"
       y1="3465.52"
       x2="20138.9"
       y2="783.28601"><stop
         offset="0"
         style="stop-opacity:1; stop-color:#FCDC6B"
         id="stop12" /><stop
         offset="1"
         style="stop-opacity:1; stop-color:#DF4158"
         id="stop14" /></linearGradient></defs><g
     id="g29"
     transform="translate(-8417.0871,-783)"><circle
       class="fil4"
       cx="9758"
       cy="2124"
       r="1341"
       id="circle31"
       style="fill:#fcdc6b" /><g
       id="g33"><g
         id="g35"><path
           class="fil5"
           d="m 8892,1334 c 0,74 85,83 145,106 l 14,6 c -31,8 -198,42 -218,54 -22,12 -34,34 -37,57 l 0,19 c 4,33 30,63 79,63 23,0 50,-10 74,-15 l 214,-49 c 34,-8 185,-35 208,-54 41,-34 38,-85 9,-115 -13,-12 -37,-20 -54,-26 -66,-22 -316,-117 -363,-117 -37,0 -71,35 -71,71 z"
           id="path37"
           inkscape:connector-curvature="0"
           style="fill:#201e1e" /><path
           class="fil5"
           d="m 10083,1488 c 0,63 50,75 95,84 48,10 96,23 143,33 l 214,49 c 41,10 50,14 91,14 28,0 62,-35 62,-63 0,-79 -41,-79 -105,-95 -50,-13 -100,-23 -150,-34 l 122,-46 c 2,-1 7,-5 10,-7 53,-47 25,-131 -52,-131 -18,0 -99,29 -118,36 -66,26 -173,57 -233,81 -39,15 -79,26 -79,79 z"
           id="path39"
           inkscape:connector-curvature="0"
           style="fill:#201e1e" /></g></g><path
       class="fil5"
       d="m 8717,1868 c 104,-21 209,-43 343,-60 135,-16 301,-27 449,-32 148,-6 278,-6 409,2 130,8 261,23 390,42 129,20 258,44 386,68 0,96 0,191 -26,304 -26,114 -78,244 -159,358 -80,114 -189,212 -279,277 -91,64 -162,94 -245,118 -83,24 -176,41 -269,43 -92,1 -183,-15 -273,-40 -89,-25 -176,-59 -270,-123 -95,-63 -197,-154 -276,-262 -78,-107 -132,-231 -158,-350 -27,-118 -24,-232 -22,-345 z"
       id="path41"
       inkscape:connector-curvature="0"
       style="fill:#201e1e" /><g
       id="g43"
       clip-path="url(#id0)"><g
         id="g45"><ellipse
           class="fil2"
           cx="9710"
           cy="2983"
           rx="828"
           ry="595"
           id="ellipse47"
           style="fill:#f50953" /></g></g><path
       class="fil6"
       d="m 8717,1868 c 104,-21 209,-43 343,-60 135,-16 301,-27 449,-32 148,-6 278,-6 409,2 130,8 261,23 390,42 129,20 258,44 386,68 0,96 0,191 -26,304 -26,114 -78,244 -159,358 -80,114 -189,212 -279,277 -91,64 -162,94 -245,118 -83,24 -176,41 -269,43 -92,1 -183,-15 -273,-40 -89,-25 -176,-59 -270,-123 -95,-63 -197,-154 -276,-262 -78,-107 -132,-231 -158,-350 -27,-118 -24,-232 -22,-345 z"
       id="path49"
       inkscape:connector-curvature="0"
       style="fill:none" /></g></svg>