<?xml version="1.0" encoding="UTF-8" standalone="no"?>
<!-- Creator: CorelDRAW X8 -->

<svg
   xmlns:dc="http://purl.org/dc/elements/1.1/"
   xmlns:cc="http://creativecommons.org/ns#"
   xmlns:rdf="http://www.w3.org/1999/02/22-rdf-syntax-ns#"
   xmlns:svg="http://www.w3.org/2000/svg"
   xmlns="http://www.w3.org/2000/svg"
   xmlns:sodipodi="http://sodipodi.sourceforge.net/DTD/sodipodi-0.dtd"
   xmlns:inkscape="http://www.inkscape.org/namespaces/inkscape"
   xml:space="preserve"
   width="54.364758mm"
   height="54.36475mm"
   version="1.1"
   style="clip-rule:evenodd;fill-rule:evenodd;image-rendering:optimizeQuality;shape-rendering:geometricPrecision;text-rendering:geometricPrecision"
   viewBox="0 0 2681.8262 2682"
   id="svg2"
   inkscape:version="0.91 r13725"
   sodipodi:docname="reaction-wow.svg"><metadata
     id="metadata101"><rdf:RDF><cc:Work
         rdf:about=""><dc:format>image/svg+xml</dc:format><dc:type
           rdf:resource="http://purl.org/dc/dcmitype/StillImage" /><dc:title></dc:title></cc:Work></rdf:RDF></metadata><sodipodi:namedview
     pagecolor="#ffffff"
     bordercolor="#666666"
     borderopacity="1"
     objecttolerance="10"
     gridtolerance="10"
     guidetolerance="10"
     inkscape:pageopacity="0"
     inkscape:pageshadow="2"
     inkscape:window-width="1920"
     inkscape:window-height="1017"
     id="namedview99"
     showgrid="false"
     inkscape:zoom="1.1101576"
     inkscape:cx="78.762614"
     inkscape:cy="104.01024"
     inkscape:window-x="-8"
     inkscape:window-y="-8"
     inkscape:window-maximized="1"
     inkscape:current-layer="svg2"
     fit-margin-top="0"
     fit-margin-left="0"
     fit-margin-right="0"
     fit-margin-bottom="0" /><defs
     id="defs4"><style
       type="text/css"
       id="style6"><![CDATA[
    .str0 {stroke:#373435;stroke-width:9.86624}
    .fil6 {fill:none}
    .fil0 {fill:#FEFEFE}
    .fil4 {fill:#FCDC6B}
    .fil1 {fill:#6A99D0}
    .fil5 {fill:#201E1E}
    .fil2 {fill:#F50953}
    .fil3 {fill:#FEFEFE;fill-rule:nonzero}
    .fil8 {fill:#6383C1;fill-rule:nonzero}
    .fil7 {fill:url(#id1)}
   ]]></style><clipPath
       id="id0"><path
         d="m 8717,1868 c 104,-21 209,-43 343,-60 135,-16 301,-27 449,-32 148,-6 278,-6 409,2 130,8 261,23 390,42 129,20 258,44 386,68 0,96 0,191 -26,304 -26,114 -78,244 -159,358 -80,114 -189,212 -279,277 -91,64 -162,94 -245,118 -83,24 -176,41 -269,43 -92,1 -183,-15 -273,-40 -89,-25 -176,-59 -270,-123 -95,-63 -197,-154 -276,-262 -78,-107 -132,-231 -158,-350 -27,-118 -24,-232 -22,-345 z"
         id="path9"
         inkscape:connector-curvature="0" /></clipPath><linearGradient
       id="id1"
       gradientUnits="userSpaceOnUse"
       x1="20138.9"
       y1="3465.52"
       x2="20138.9"
       y2="783.28601"><stop
         offset="0"
         style="stop-opacity:1; stop-color:#FCDC6B"
         id="stop12" /><stop
         offset="1"
         style="stop-opacity:1; stop-color:#DF4158"
         id="stop14" /></linearGradient></defs><g
     id="g51"
     transform="translate(-11875.087,-783)"><circle
       class="fil4"
       cx="13216"
       cy="2124"
       r="1341"
       id="circle53"
       style="fill:#fcdc6b" /><g
       id="g55"><g
         id="g57"><path
           class="fil5"
           d="m 12392,1204 c 0,62 77,97 126,55 14,-13 27,-35 56,-57 12,-8 20,-15 33,-22 56,-28 100,-3 138,39 50,57 136,25 136,-48 0,-61 -222,-287 -450,-41 -7,7 -6,7 -11,14 -13,16 -28,30 -28,60 z"
           id="path59"
           inkscape:connector-curvature="0"
           style="fill:#201e1e" /><path
           class="fil5"
           d="m 13570,1171 c 0,63 61,93 108,70 19,-10 49,-49 79,-63 44,-21 80,-8 115,21 11,9 19,15 29,25 16,16 47,73 109,48 14,-5 22,-12 31,-23 11,-14 16,-26 18,-38 l 0,-14 c -4,-29 -28,-51 -38,-64 -42,-55 -144,-117 -221,-117 -54,0 -112,24 -145,48 l -53,43 c -5,6 -4,6 -9,12 -12,15 -23,23 -23,52 z"
           id="path61"
           inkscape:connector-curvature="0"
           style="fill:#201e1e" /></g></g><ellipse
       class="fil5"
       transform="matrix(1.43407,0,-0.0857114,1.03294,12611,1815.45)"
       rx="137"
       ry="268"
       id="ellipse63"
       cx="0"
       cy="0"
       style="fill:#201e1e" /><ellipse
       class="fil5"
       transform="matrix(-1.43407,0,0.0857114,1.03294,13832.4,1815.45)"
       rx="137"
       ry="268"
       id="ellipse65"
       cx="0"
       cy="0"
       style="fill:#201e1e" /><ellipse
       class="fil5"
       cx="13218"
       cy="2720"
       rx="331"
       ry="544"
       id="ellipse67"
       style="fill:#201e1e" /></g></svg>