<?xml version="1.0" encoding="UTF-8" standalone="no"?>
<!-- Creator: CorelDRAW X8 -->

<svg
   xmlns:dc="http://purl.org/dc/elements/1.1/"
   xmlns:cc="http://creativecommons.org/ns#"
   xmlns:rdf="http://www.w3.org/1999/02/22-rdf-syntax-ns#"
   xmlns:svg="http://www.w3.org/2000/svg"
   xmlns="http://www.w3.org/2000/svg"
   xmlns:sodipodi="http://sodipodi.sourceforge.net/DTD/sodipodi-0.dtd"
   xmlns:inkscape="http://www.inkscape.org/namespaces/inkscape"
   xml:space="preserve"
   width="54.36475mm"
   height="54.364746mm"
   version="1.1"
   style="clip-rule:evenodd;fill-rule:evenodd;image-rendering:optimizeQuality;shape-rendering:geometricPrecision;text-rendering:geometricPrecision"
   viewBox="0 0 2681.8258 2681.9998"
   id="svg2"
   inkscape:version="0.91 r13725"
   sodipodi:docname="reaction-love.svg"><metadata
     id="metadata101"><rdf:RDF><cc:Work
         rdf:about=""><dc:format>image/svg+xml</dc:format><dc:type
           rdf:resource="http://purl.org/dc/dcmitype/StillImage" /><dc:title></dc:title></cc:Work></rdf:RDF></metadata><sodipodi:namedview
     pagecolor="#ffffff"
     bordercolor="#666666"
     borderopacity="1"
     objecttolerance="10"
     gridtolerance="10"
     guidetolerance="10"
     inkscape:pageopacity="0"
     inkscape:pageshadow="2"
     inkscape:window-width="1920"
     inkscape:window-height="1017"
     id="namedview99"
     showgrid="false"
     inkscape:zoom="1.1101576"
     inkscape:cx="529.30291"
     inkscape:cy="104.01023"
     inkscape:window-x="-8"
     inkscape:window-y="-8"
     inkscape:window-maximized="1"
     inkscape:current-layer="svg2"
     fit-margin-top="0"
     fit-margin-left="0"
     fit-margin-right="0"
     fit-margin-bottom="0" /><defs
     id="defs4"><style
       type="text/css"
       id="style6"><![CDATA[
    .str0 {stroke:#373435;stroke-width:9.86624}
    .fil6 {fill:none}
    .fil0 {fill:#FEFEFE}
    .fil4 {fill:#FCDC6B}
    .fil1 {fill:#6A99D0}
    .fil5 {fill:#201E1E}
    .fil2 {fill:#F50953}
    .fil3 {fill:#FEFEFE;fill-rule:nonzero}
    .fil8 {fill:#6383C1;fill-rule:nonzero}
    .fil7 {fill:url(#id1)}
   ]]></style><clipPath
       id="id0"><path
         d="m 8717,1868 c 104,-21 209,-43 343,-60 135,-16 301,-27 449,-32 148,-6 278,-6 409,2 130,8 261,23 390,42 129,20 258,44 386,68 0,96 0,191 -26,304 -26,114 -78,244 -159,358 -80,114 -189,212 -279,277 -91,64 -162,94 -245,118 -83,24 -176,41 -269,43 -92,1 -183,-15 -273,-40 -89,-25 -176,-59 -270,-123 -95,-63 -197,-154 -276,-262 -78,-107 -132,-231 -158,-350 -27,-118 -24,-232 -22,-345 z"
         id="path9"
         inkscape:connector-curvature="0" /></clipPath><linearGradient
       id="id1"
       gradientUnits="userSpaceOnUse"
       x1="20138.9"
       y1="3465.52"
       x2="20138.9"
       y2="783.28601"><stop
         offset="0"
         style="stop-opacity:1; stop-color:#FCDC6B"
         id="stop12" /><stop
         offset="1"
         style="stop-opacity:1; stop-color:#DF4158"
         id="stop14" /></linearGradient></defs><circle
     class="fil2"
     cx="1340.9128"
     cy="1341"
     r="1341"
     id="circle23"
     style="fill:#f50953" /><path
     class="fil3"
     d="m 1340.9129,836 c 117,-203 235,-304 470,-304 259,0 470,310 470,533 0,405 -562,844 -940,1086 -340,-209 -939.99995,-681 -939.99995,-1086 0,-223 211,-533 470,-533 234.99995,0 351.99995,101 469.99995,304 z"
     id="path27"
     inkscape:connector-curvature="0"
     style="fill:#fefefe;fill-rule:nonzero" /></svg>