<?xml version="1.0" encoding="UTF-8" standalone="no"?>
<!-- Creator: CorelDRAW X8 -->

<svg
   xmlns:dc="http://purl.org/dc/elements/1.1/"
   xmlns:cc="http://creativecommons.org/ns#"
   xmlns:rdf="http://www.w3.org/1999/02/22-rdf-syntax-ns#"
   xmlns:svg="http://www.w3.org/2000/svg"
   xmlns="http://www.w3.org/2000/svg"
   xmlns:sodipodi="http://sodipodi.sourceforge.net/DTD/sodipodi-0.dtd"
   xmlns:inkscape="http://www.inkscape.org/namespaces/inkscape"
   xml:space="preserve"
   width="54.36475mm"
   height="54.36475mm"
   version="1.1"
   style="clip-rule:evenodd;fill-rule:evenodd;image-rendering:optimizeQuality;shape-rendering:geometricPrecision;text-rendering:geometricPrecision"
   viewBox="0 0 2681.8258 2682"
   id="svg2"
   inkscape:version="0.91 r13725"
   sodipodi:docname="reaction-mad.svg"><metadata
     id="metadata101"><rdf:RDF><cc:Work
         rdf:about=""><dc:format>image/svg+xml</dc:format><dc:type
           rdf:resource="http://purl.org/dc/dcmitype/StillImage" /><dc:title></dc:title></cc:Work></rdf:RDF></metadata><sodipodi:namedview
     pagecolor="#ffffff"
     bordercolor="#666666"
     borderopacity="1"
     objecttolerance="10"
     gridtolerance="10"
     guidetolerance="10"
     inkscape:pageopacity="0"
     inkscape:pageshadow="2"
     inkscape:window-width="1920"
     inkscape:window-height="1017"
     id="namedview99"
     showgrid="false"
     inkscape:zoom="1.1101576"
     inkscape:cx="-418.4724"
     inkscape:cy="104.01025"
     inkscape:window-x="-8"
     inkscape:window-y="-8"
     inkscape:window-maximized="1"
     inkscape:current-layer="svg2"
     fit-margin-top="0"
     fit-margin-left="0"
     fit-margin-right="0"
     fit-margin-bottom="0" /><defs
     id="defs4"><style
       type="text/css"
       id="style6"><![CDATA[
    .str0 {stroke:#373435;stroke-width:9.86624}
    .fil6 {fill:none}
    .fil0 {fill:#FEFEFE}
    .fil4 {fill:#FCDC6B}
    .fil1 {fill:#6A99D0}
    .fil5 {fill:#201E1E}
    .fil2 {fill:#F50953}
    .fil3 {fill:#FEFEFE;fill-rule:nonzero}
    .fil8 {fill:#6383C1;fill-rule:nonzero}
    .fil7 {fill:url(#id1)}
   ]]></style><clipPath
       id="id0"><path
         d="m 8717,1868 c 104,-21 209,-43 343,-60 135,-16 301,-27 449,-32 148,-6 278,-6 409,2 130,8 261,23 390,42 129,20 258,44 386,68 0,96 0,191 -26,304 -26,114 -78,244 -159,358 -80,114 -189,212 -279,277 -91,64 -162,94 -245,118 -83,24 -176,41 -269,43 -92,1 -183,-15 -273,-40 -89,-25 -176,-59 -270,-123 -95,-63 -197,-154 -276,-262 -78,-107 -132,-231 -158,-350 -27,-118 -24,-232 -22,-345 z"
         id="path9"
         inkscape:connector-curvature="0" /></clipPath><linearGradient
       id="id1"
       gradientUnits="userSpaceOnUse"
       x1="20138.9"
       y1="3465.52"
       x2="20138.9"
       y2="783.28601"><stop
         offset="0"
         style="stop-opacity:1; stop-color:#FCDC6B"
         id="stop12" /><stop
         offset="1"
         style="stop-opacity:1; stop-color:#DF4158"
         id="stop14" /></linearGradient></defs><g
     id="g69"
     transform="translate(-18798.086,-783)"><circle
       class="fil7"
       cx="20139"
       cy="2124"
       r="1341"
       id="circle71"
       style="fill:url(#id1)" /><path
       class="fil5"
       d="m 20305,2993 c 269,0 296,59 296,106 0,48 -133,67 -296,67 -164,0 -297,-19 -297,-67 0,-47 27,-106 297,-106 z"
       id="path73"
       inkscape:connector-curvature="0"
       style="fill:#201e1e" /><path
       class="fil5"
       d="m 19326,2683 c 0,73 59,85 131,106 8,2 16,4 24,7 35,78 118,134 214,134 62,0 118,-23 160,-60 28,4 56,6 85,9 42,3 65,6 91,-17 37,-35 39,-116 -48,-131 l -206,-24 c -85,-12 -242,-47 -327,-78 -15,-6 -30,-11 -45,-13 l -16,0 c -13,1 -26,7 -40,20 -9,8 -23,31 -23,47 z m 242,135 c 7,2 15,4 22,5 -7,-1 -15,-3 -22,-5 z"
       id="path75"
       inkscape:connector-curvature="0"
       style="fill:#201e1e" /><path
       class="fil5"
       d="m 21258,2697 c 0,69 -56,80 -125,100 -7,2 -14,4 -22,6 -33,74 -111,127 -202,127 -58,0 -111,-22 -150,-56 -27,3 -54,5 -81,8 -39,3 -61,6 -85,-17 -35,-33 -38,-109 44,-123 l 195,-22 c 81,-12 228,-45 308,-74 14,-5 28,-11 43,-12 l 15,0 c 12,1 24,7 37,18 9,9 23,30 23,45 z m -229,127 c -7,2 -14,4 -21,5 7,-1 14,-3 21,-5 z"
       id="path77"
       inkscape:connector-curvature="0"
       style="fill:#201e1e" /></g></svg>
